<mxfile host="app.diagrams.net" agent="Mozilla/5.0 (Windows NT 10.0; Win64; x64) AppleWebKit/537.36 (KHTML, like Gecko) Chrome/131.0.0.0 Safari/537.36 OPR/116.0.0.0 (Edition MSI)" version="26.0.16">
  <diagram name="Шелла" id="0K2shmLFRbE5Z6jaX1UU">
    <mxGraphModel dx="1220" dy="1212" grid="1" gridSize="10" guides="1" tooltips="1" connect="1" arrows="1" fold="1" page="1" pageScale="1" pageWidth="1169" pageHeight="827" math="0" shadow="0">
      <root>
        <mxCell id="0" />
        <mxCell id="1" parent="0" />
        <mxCell id="R3SNG4ff3FNcJSPOFOAm-2" style="edgeStyle=orthogonalEdgeStyle;rounded=0;orthogonalLoop=1;jettySize=auto;html=1;" edge="1" parent="1" source="R3SNG4ff3FNcJSPOFOAm-1" target="R3SNG4ff3FNcJSPOFOAm-3">
          <mxGeometry relative="1" as="geometry">
            <mxPoint x="475" y="80" as="targetPoint" />
          </mxGeometry>
        </mxCell>
        <mxCell id="R3SNG4ff3FNcJSPOFOAm-1" value="void shell(int* a,int n,int step)" style="shape=process;whiteSpace=wrap;html=1;backgroundOutline=1;" vertex="1" parent="1">
          <mxGeometry x="370" width="210" height="30" as="geometry" />
        </mxCell>
        <mxCell id="R3SNG4ff3FNcJSPOFOAm-4" style="edgeStyle=orthogonalEdgeStyle;rounded=0;orthogonalLoop=1;jettySize=auto;html=1;" edge="1" parent="1" source="R3SNG4ff3FNcJSPOFOAm-3" target="R3SNG4ff3FNcJSPOFOAm-6">
          <mxGeometry relative="1" as="geometry">
            <mxPoint x="250" y="150" as="targetPoint" />
          </mxGeometry>
        </mxCell>
        <mxCell id="R3SNG4ff3FNcJSPOFOAm-3" value="if(step&amp;gt;=1)" style="rhombus;whiteSpace=wrap;html=1;" vertex="1" parent="1">
          <mxGeometry x="435" y="50" width="80" height="80" as="geometry" />
        </mxCell>
        <mxCell id="R3SNG4ff3FNcJSPOFOAm-5" value="1" style="text;html=1;align=center;verticalAlign=middle;resizable=0;points=[];autosize=1;strokeColor=none;fillColor=none;" vertex="1" parent="1">
          <mxGeometry x="390" y="58" width="30" height="30" as="geometry" />
        </mxCell>
        <mxCell id="R3SNG4ff3FNcJSPOFOAm-7" style="edgeStyle=orthogonalEdgeStyle;rounded=0;orthogonalLoop=1;jettySize=auto;html=1;" edge="1" parent="1" source="R3SNG4ff3FNcJSPOFOAm-6">
          <mxGeometry relative="1" as="geometry">
            <mxPoint x="340" y="200" as="targetPoint" />
          </mxGeometry>
        </mxCell>
        <mxCell id="R3SNG4ff3FNcJSPOFOAm-6" value="for(int i=0;i+step&amp;lt;=n-step;i++)" style="shape=hexagon;perimeter=hexagonPerimeter2;whiteSpace=wrap;html=1;fixedSize=1;" vertex="1" parent="1">
          <mxGeometry x="250" y="140" width="180" height="20" as="geometry" />
        </mxCell>
        <mxCell id="R3SNG4ff3FNcJSPOFOAm-8" value="1" style="text;html=1;align=center;verticalAlign=middle;resizable=0;points=[];autosize=1;strokeColor=none;fillColor=none;" vertex="1" parent="1">
          <mxGeometry x="315" y="158" width="30" height="30" as="geometry" />
        </mxCell>
        <mxCell id="R3SNG4ff3FNcJSPOFOAm-10" style="edgeStyle=orthogonalEdgeStyle;rounded=0;orthogonalLoop=1;jettySize=auto;html=1;" edge="1" parent="1" source="R3SNG4ff3FNcJSPOFOAm-9" target="R3SNG4ff3FNcJSPOFOAm-12">
          <mxGeometry relative="1" as="geometry">
            <mxPoint x="340" y="260" as="targetPoint" />
          </mxGeometry>
        </mxCell>
        <mxCell id="R3SNG4ff3FNcJSPOFOAm-9" value="for(int j=i;j&amp;gt;=0 &amp;amp;&amp;amp; a[j]&amp;gt;a[j+step];j=j-step)" style="shape=hexagon;perimeter=hexagonPerimeter2;whiteSpace=wrap;html=1;fixedSize=1;" vertex="1" parent="1">
          <mxGeometry x="225" y="200" width="230" height="20" as="geometry" />
        </mxCell>
        <mxCell id="R3SNG4ff3FNcJSPOFOAm-11" value="1" style="text;html=1;align=center;verticalAlign=middle;resizable=0;points=[];autosize=1;strokeColor=none;fillColor=none;" vertex="1" parent="1">
          <mxGeometry x="315" y="218" width="30" height="30" as="geometry" />
        </mxCell>
        <mxCell id="R3SNG4ff3FNcJSPOFOAm-13" style="edgeStyle=orthogonalEdgeStyle;rounded=0;orthogonalLoop=1;jettySize=auto;html=1;" edge="1" parent="1" source="R3SNG4ff3FNcJSPOFOAm-12" target="R3SNG4ff3FNcJSPOFOAm-14">
          <mxGeometry relative="1" as="geometry">
            <mxPoint x="340" y="290" as="targetPoint" />
          </mxGeometry>
        </mxCell>
        <mxCell id="R3SNG4ff3FNcJSPOFOAm-12" value="int sw=a[j];" style="rounded=0;whiteSpace=wrap;html=1;" vertex="1" parent="1">
          <mxGeometry x="300" y="248" width="80" height="22" as="geometry" />
        </mxCell>
        <mxCell id="R3SNG4ff3FNcJSPOFOAm-15" style="edgeStyle=orthogonalEdgeStyle;rounded=0;orthogonalLoop=1;jettySize=auto;html=1;" edge="1" parent="1" source="R3SNG4ff3FNcJSPOFOAm-14" target="R3SNG4ff3FNcJSPOFOAm-16">
          <mxGeometry relative="1" as="geometry">
            <mxPoint x="340" y="350" as="targetPoint" />
          </mxGeometry>
        </mxCell>
        <mxCell id="R3SNG4ff3FNcJSPOFOAm-14" value="a[j]=a[j+step];" style="rounded=0;whiteSpace=wrap;html=1;" vertex="1" parent="1">
          <mxGeometry x="295" y="290" width="90" height="30" as="geometry" />
        </mxCell>
        <mxCell id="R3SNG4ff3FNcJSPOFOAm-16" value="&amp;nbsp;a[j+step]=sw;" style="rounded=0;whiteSpace=wrap;html=1;" vertex="1" parent="1">
          <mxGeometry x="295" y="340" width="90" height="30" as="geometry" />
        </mxCell>
        <mxCell id="R3SNG4ff3FNcJSPOFOAm-17" value="" style="endArrow=none;html=1;rounded=0;entryX=0.5;entryY=1;entryDx=0;entryDy=0;" edge="1" parent="1" target="R3SNG4ff3FNcJSPOFOAm-16">
          <mxGeometry width="50" height="50" relative="1" as="geometry">
            <mxPoint x="340" y="390" as="sourcePoint" />
            <mxPoint x="420" y="360" as="targetPoint" />
          </mxGeometry>
        </mxCell>
        <mxCell id="R3SNG4ff3FNcJSPOFOAm-18" value="" style="endArrow=none;html=1;rounded=0;" edge="1" parent="1">
          <mxGeometry width="50" height="50" relative="1" as="geometry">
            <mxPoint x="200" y="390" as="sourcePoint" />
            <mxPoint x="340" y="390" as="targetPoint" />
          </mxGeometry>
        </mxCell>
        <mxCell id="R3SNG4ff3FNcJSPOFOAm-19" value="" style="endArrow=none;html=1;rounded=0;" edge="1" parent="1">
          <mxGeometry width="50" height="50" relative="1" as="geometry">
            <mxPoint x="200" y="390" as="sourcePoint" />
            <mxPoint x="200" y="180" as="targetPoint" />
          </mxGeometry>
        </mxCell>
        <mxCell id="R3SNG4ff3FNcJSPOFOAm-20" value="" style="endArrow=classic;html=1;rounded=0;entryX=0.833;entryY=0.733;entryDx=0;entryDy=0;entryPerimeter=0;" edge="1" parent="1" target="R3SNG4ff3FNcJSPOFOAm-8">
          <mxGeometry width="50" height="50" relative="1" as="geometry">
            <mxPoint x="200" y="180" as="sourcePoint" />
            <mxPoint x="290" y="290" as="targetPoint" />
          </mxGeometry>
        </mxCell>
        <mxCell id="R3SNG4ff3FNcJSPOFOAm-21" value="" style="endArrow=none;html=1;rounded=0;exitX=1;exitY=0.5;exitDx=0;exitDy=0;" edge="1" parent="1" source="R3SNG4ff3FNcJSPOFOAm-9">
          <mxGeometry width="50" height="50" relative="1" as="geometry">
            <mxPoint x="465" y="238" as="sourcePoint" />
            <mxPoint x="480" y="210" as="targetPoint" />
          </mxGeometry>
        </mxCell>
        <mxCell id="R3SNG4ff3FNcJSPOFOAm-22" value="" style="endArrow=none;html=1;rounded=0;" edge="1" parent="1">
          <mxGeometry width="50" height="50" relative="1" as="geometry">
            <mxPoint x="480" y="400" as="sourcePoint" />
            <mxPoint x="480" y="210" as="targetPoint" />
          </mxGeometry>
        </mxCell>
        <mxCell id="R3SNG4ff3FNcJSPOFOAm-23" value="" style="endArrow=none;html=1;rounded=0;" edge="1" parent="1">
          <mxGeometry width="50" height="50" relative="1" as="geometry">
            <mxPoint x="180" y="400" as="sourcePoint" />
            <mxPoint x="480" y="400" as="targetPoint" />
          </mxGeometry>
        </mxCell>
        <mxCell id="R3SNG4ff3FNcJSPOFOAm-24" value="" style="endArrow=none;html=1;rounded=0;" edge="1" parent="1">
          <mxGeometry width="50" height="50" relative="1" as="geometry">
            <mxPoint x="180" y="400" as="sourcePoint" />
            <mxPoint x="180" y="130" as="targetPoint" />
          </mxGeometry>
        </mxCell>
        <mxCell id="R3SNG4ff3FNcJSPOFOAm-25" value="" style="endArrow=classic;html=1;rounded=0;" edge="1" parent="1">
          <mxGeometry width="50" height="50" relative="1" as="geometry">
            <mxPoint x="180" y="130" as="sourcePoint" />
            <mxPoint x="340" y="130" as="targetPoint" />
          </mxGeometry>
        </mxCell>
        <mxCell id="R3SNG4ff3FNcJSPOFOAm-26" value="0" style="text;html=1;align=center;verticalAlign=middle;resizable=0;points=[];autosize=1;strokeColor=none;fillColor=none;" vertex="1" parent="1">
          <mxGeometry x="450" y="188" width="30" height="30" as="geometry" />
        </mxCell>
        <mxCell id="R3SNG4ff3FNcJSPOFOAm-27" value="" style="endArrow=none;html=1;rounded=0;exitX=1;exitY=0.5;exitDx=0;exitDy=0;" edge="1" parent="1" source="R3SNG4ff3FNcJSPOFOAm-6">
          <mxGeometry width="50" height="50" relative="1" as="geometry">
            <mxPoint x="440" y="188" as="sourcePoint" />
            <mxPoint x="490" y="150" as="targetPoint" />
          </mxGeometry>
        </mxCell>
        <mxCell id="R3SNG4ff3FNcJSPOFOAm-28" value="" style="endArrow=none;html=1;rounded=0;" edge="1" parent="1">
          <mxGeometry width="50" height="50" relative="1" as="geometry">
            <mxPoint x="490" y="410" as="sourcePoint" />
            <mxPoint x="490" y="150" as="targetPoint" />
          </mxGeometry>
        </mxCell>
        <mxCell id="R3SNG4ff3FNcJSPOFOAm-29" value="" style="endArrow=none;html=1;rounded=0;" edge="1" parent="1">
          <mxGeometry width="50" height="50" relative="1" as="geometry">
            <mxPoint x="340" y="410" as="sourcePoint" />
            <mxPoint x="490" y="410" as="targetPoint" />
          </mxGeometry>
        </mxCell>
        <mxCell id="R3SNG4ff3FNcJSPOFOAm-31" value="0" style="text;html=1;align=center;verticalAlign=middle;resizable=0;points=[];autosize=1;strokeColor=none;fillColor=none;" vertex="1" parent="1">
          <mxGeometry x="435" y="128" width="30" height="30" as="geometry" />
        </mxCell>
        <mxCell id="R3SNG4ff3FNcJSPOFOAm-32" value="" style="endArrow=classic;html=1;rounded=0;" edge="1" parent="1" target="R3SNG4ff3FNcJSPOFOAm-33">
          <mxGeometry width="50" height="50" relative="1" as="geometry">
            <mxPoint x="340" y="410" as="sourcePoint" />
            <mxPoint x="340" y="430" as="targetPoint" />
          </mxGeometry>
        </mxCell>
        <mxCell id="R3SNG4ff3FNcJSPOFOAm-34" style="edgeStyle=orthogonalEdgeStyle;rounded=0;orthogonalLoop=1;jettySize=auto;html=1;" edge="1" parent="1" source="R3SNG4ff3FNcJSPOFOAm-33" target="R3SNG4ff3FNcJSPOFOAm-35">
          <mxGeometry relative="1" as="geometry">
            <mxPoint x="340" y="470" as="targetPoint" />
          </mxGeometry>
        </mxCell>
        <mxCell id="R3SNG4ff3FNcJSPOFOAm-33" value="&amp;nbsp;step/=2;" style="rounded=0;whiteSpace=wrap;html=1;" vertex="1" parent="1">
          <mxGeometry x="310" y="430" width="60" height="20" as="geometry" />
        </mxCell>
        <mxCell id="R3SNG4ff3FNcJSPOFOAm-35" value="shell(a,n,step);" style="rounded=0;whiteSpace=wrap;html=1;" vertex="1" parent="1">
          <mxGeometry x="295" y="470" width="90" height="20" as="geometry" />
        </mxCell>
        <mxCell id="R3SNG4ff3FNcJSPOFOAm-36" value="" style="endArrow=none;html=1;rounded=0;exitX=1;exitY=0.5;exitDx=0;exitDy=0;" edge="1" parent="1" source="R3SNG4ff3FNcJSPOFOAm-3">
          <mxGeometry width="50" height="50" relative="1" as="geometry">
            <mxPoint x="610" y="168" as="sourcePoint" />
            <mxPoint x="620" y="90" as="targetPoint" />
          </mxGeometry>
        </mxCell>
        <mxCell id="R3SNG4ff3FNcJSPOFOAm-37" value="0" style="text;html=1;align=center;verticalAlign=middle;resizable=0;points=[];autosize=1;strokeColor=none;fillColor=none;" vertex="1" parent="1">
          <mxGeometry x="545" y="68" width="30" height="30" as="geometry" />
        </mxCell>
        <mxCell id="R3SNG4ff3FNcJSPOFOAm-38" value="" style="endArrow=none;html=1;rounded=0;" edge="1" parent="1">
          <mxGeometry width="50" height="50" relative="1" as="geometry">
            <mxPoint x="620" y="520" as="sourcePoint" />
            <mxPoint x="620" y="90" as="targetPoint" />
          </mxGeometry>
        </mxCell>
        <mxCell id="R3SNG4ff3FNcJSPOFOAm-39" value="" style="endArrow=none;html=1;rounded=0;entryX=0.5;entryY=1;entryDx=0;entryDy=0;" edge="1" parent="1" target="R3SNG4ff3FNcJSPOFOAm-35">
          <mxGeometry width="50" height="50" relative="1" as="geometry">
            <mxPoint x="340" y="520" as="sourcePoint" />
            <mxPoint x="380" y="520" as="targetPoint" />
          </mxGeometry>
        </mxCell>
        <mxCell id="R3SNG4ff3FNcJSPOFOAm-40" value="" style="endArrow=classic;html=1;rounded=0;" edge="1" parent="1">
          <mxGeometry width="50" height="50" relative="1" as="geometry">
            <mxPoint x="340" y="520" as="sourcePoint" />
            <mxPoint x="490" y="520" as="targetPoint" />
          </mxGeometry>
        </mxCell>
        <mxCell id="R3SNG4ff3FNcJSPOFOAm-41" value="" style="endArrow=classic;html=1;rounded=0;" edge="1" parent="1">
          <mxGeometry width="50" height="50" relative="1" as="geometry">
            <mxPoint x="620" y="520" as="sourcePoint" />
            <mxPoint x="490" y="520" as="targetPoint" />
          </mxGeometry>
        </mxCell>
        <mxCell id="R3SNG4ff3FNcJSPOFOAm-42" value="" style="endArrow=classic;html=1;rounded=0;" edge="1" parent="1" target="R3SNG4ff3FNcJSPOFOAm-43">
          <mxGeometry width="50" height="50" relative="1" as="geometry">
            <mxPoint x="490" y="520" as="sourcePoint" />
            <mxPoint x="490" y="550" as="targetPoint" />
          </mxGeometry>
        </mxCell>
        <mxCell id="R3SNG4ff3FNcJSPOFOAm-43" value="}" style="ellipse;whiteSpace=wrap;html=1;" vertex="1" parent="1">
          <mxGeometry x="470" y="540" width="40" height="30" as="geometry" />
        </mxCell>
        <mxCell id="R3SNG4ff3FNcJSPOFOAm-45" style="edgeStyle=orthogonalEdgeStyle;rounded=0;orthogonalLoop=1;jettySize=auto;html=1;" edge="1" parent="1" source="R3SNG4ff3FNcJSPOFOAm-44" target="R3SNG4ff3FNcJSPOFOAm-49">
          <mxGeometry relative="1" as="geometry">
            <mxPoint x="913.75" y="110" as="targetPoint" />
          </mxGeometry>
        </mxCell>
        <mxCell id="R3SNG4ff3FNcJSPOFOAm-44" value="int main()" style="shape=process;whiteSpace=wrap;html=1;backgroundOutline=1;" vertex="1" parent="1">
          <mxGeometry x="868.75" width="90" height="30" as="geometry" />
        </mxCell>
        <mxCell id="R3SNG4ff3FNcJSPOFOAm-47" style="edgeStyle=orthogonalEdgeStyle;rounded=0;orthogonalLoop=1;jettySize=auto;html=1;" edge="1" parent="1" source="R3SNG4ff3FNcJSPOFOAm-46">
          <mxGeometry relative="1" as="geometry">
            <mxPoint x="918.75" y="73" as="targetPoint" />
          </mxGeometry>
        </mxCell>
        <mxCell id="R3SNG4ff3FNcJSPOFOAm-46" value="&lt;div&gt;#include &amp;lt;iostream&amp;gt;&lt;/div&gt;&lt;div&gt;using namespace std;&lt;/div&gt;" style="strokeWidth=2;html=1;shape=mxgraph.flowchart.annotation_2;align=left;labelPosition=right;pointerEvents=1;" vertex="1" parent="1">
          <mxGeometry x="998.75" y="23" width="50" height="100" as="geometry" />
        </mxCell>
        <mxCell id="R3SNG4ff3FNcJSPOFOAm-50" style="edgeStyle=orthogonalEdgeStyle;rounded=0;orthogonalLoop=1;jettySize=auto;html=1;" edge="1" parent="1" source="R3SNG4ff3FNcJSPOFOAm-49" target="R3SNG4ff3FNcJSPOFOAm-51">
          <mxGeometry relative="1" as="geometry">
            <mxPoint x="913.75" y="190" as="targetPoint" />
          </mxGeometry>
        </mxCell>
        <mxCell id="R3SNG4ff3FNcJSPOFOAm-49" value="&amp;nbsp;int a[10]{15,-17,18,8,-14,-10,16,12,-6,-9};" style="rounded=0;whiteSpace=wrap;html=1;" vertex="1" parent="1">
          <mxGeometry x="800" y="128" width="227.5" height="27" as="geometry" />
        </mxCell>
        <mxCell id="R3SNG4ff3FNcJSPOFOAm-52" style="edgeStyle=orthogonalEdgeStyle;rounded=0;orthogonalLoop=1;jettySize=auto;html=1;" edge="1" parent="1" source="R3SNG4ff3FNcJSPOFOAm-51" target="R3SNG4ff3FNcJSPOFOAm-53">
          <mxGeometry relative="1" as="geometry">
            <mxPoint x="913.75" y="240" as="targetPoint" />
          </mxGeometry>
        </mxCell>
        <mxCell id="R3SNG4ff3FNcJSPOFOAm-51" value="shell(a,10,10/2);" style="rounded=0;whiteSpace=wrap;html=1;" vertex="1" parent="1">
          <mxGeometry x="861.25" y="180" width="105" height="27" as="geometry" />
        </mxCell>
        <mxCell id="R3SNG4ff3FNcJSPOFOAm-54" style="edgeStyle=orthogonalEdgeStyle;rounded=0;orthogonalLoop=1;jettySize=auto;html=1;" edge="1" parent="1" source="R3SNG4ff3FNcJSPOFOAm-53" target="R3SNG4ff3FNcJSPOFOAm-56">
          <mxGeometry relative="1" as="geometry">
            <mxPoint x="913.75" y="290" as="targetPoint" />
          </mxGeometry>
        </mxCell>
        <mxCell id="R3SNG4ff3FNcJSPOFOAm-53" value="for(int i=0;i&amp;lt;10;i++)" style="shape=hexagon;perimeter=hexagonPerimeter2;whiteSpace=wrap;html=1;fixedSize=1;" vertex="1" parent="1">
          <mxGeometry x="853.75" y="230" width="120" height="20" as="geometry" />
        </mxCell>
        <mxCell id="R3SNG4ff3FNcJSPOFOAm-55" value="1" style="text;html=1;align=center;verticalAlign=middle;resizable=0;points=[];autosize=1;strokeColor=none;fillColor=none;" vertex="1" parent="1">
          <mxGeometry x="888.75" y="250" width="30" height="30" as="geometry" />
        </mxCell>
        <mxCell id="R3SNG4ff3FNcJSPOFOAm-56" value="cout&amp;lt;&amp;lt;a[i]&amp;lt;&amp;lt;&quot; &quot;;" style="shape=parallelogram;perimeter=parallelogramPerimeter;whiteSpace=wrap;html=1;fixedSize=1;" vertex="1" parent="1">
          <mxGeometry x="853.75" y="280" width="120" height="20" as="geometry" />
        </mxCell>
        <mxCell id="R3SNG4ff3FNcJSPOFOAm-57" value="" style="endArrow=none;html=1;rounded=0;entryX=0.5;entryY=1;entryDx=0;entryDy=0;" edge="1" parent="1">
          <mxGeometry width="50" height="50" relative="1" as="geometry">
            <mxPoint x="913.51" y="320" as="sourcePoint" />
            <mxPoint x="913.51" y="300" as="targetPoint" />
          </mxGeometry>
        </mxCell>
        <mxCell id="R3SNG4ff3FNcJSPOFOAm-58" value="" style="endArrow=none;html=1;rounded=0;" edge="1" parent="1">
          <mxGeometry width="50" height="50" relative="1" as="geometry">
            <mxPoint x="780" y="320" as="sourcePoint" />
            <mxPoint x="920" y="320" as="targetPoint" />
          </mxGeometry>
        </mxCell>
        <mxCell id="R3SNG4ff3FNcJSPOFOAm-59" value="" style="endArrow=none;html=1;rounded=0;" edge="1" parent="1">
          <mxGeometry width="50" height="50" relative="1" as="geometry">
            <mxPoint x="780" y="320" as="sourcePoint" />
            <mxPoint x="780" y="220" as="targetPoint" />
          </mxGeometry>
        </mxCell>
        <mxCell id="R3SNG4ff3FNcJSPOFOAm-60" value="" style="endArrow=classic;html=1;rounded=0;" edge="1" parent="1">
          <mxGeometry width="50" height="50" relative="1" as="geometry">
            <mxPoint x="780" y="220" as="sourcePoint" />
            <mxPoint x="910" y="220" as="targetPoint" />
          </mxGeometry>
        </mxCell>
        <mxCell id="R3SNG4ff3FNcJSPOFOAm-61" value="" style="endArrow=none;html=1;rounded=0;exitX=1;exitY=0.5;exitDx=0;exitDy=0;" edge="1" parent="1" source="R3SNG4ff3FNcJSPOFOAm-53">
          <mxGeometry width="50" height="50" relative="1" as="geometry">
            <mxPoint x="1020" y="268" as="sourcePoint" />
            <mxPoint x="1000" y="240" as="targetPoint" />
          </mxGeometry>
        </mxCell>
        <mxCell id="R3SNG4ff3FNcJSPOFOAm-62" value="0" style="text;html=1;align=center;verticalAlign=middle;resizable=0;points=[];autosize=1;strokeColor=none;fillColor=none;" vertex="1" parent="1">
          <mxGeometry x="965" y="218" width="30" height="30" as="geometry" />
        </mxCell>
        <mxCell id="R3SNG4ff3FNcJSPOFOAm-63" value="{" style="text;html=1;align=center;verticalAlign=middle;resizable=0;points=[];autosize=1;strokeColor=none;fillColor=none;" vertex="1" parent="1">
          <mxGeometry x="450" y="23" width="30" height="30" as="geometry" />
        </mxCell>
        <mxCell id="R3SNG4ff3FNcJSPOFOAm-64" value="{" style="text;html=1;align=center;verticalAlign=middle;resizable=0;points=[];autosize=1;strokeColor=none;fillColor=none;" vertex="1" parent="1">
          <mxGeometry x="885" y="28" width="30" height="30" as="geometry" />
        </mxCell>
        <mxCell id="R3SNG4ff3FNcJSPOFOAm-65" value="" style="endArrow=none;html=1;rounded=0;" edge="1" parent="1">
          <mxGeometry width="50" height="50" relative="1" as="geometry">
            <mxPoint x="1000" y="340" as="sourcePoint" />
            <mxPoint x="1000" y="240" as="targetPoint" />
          </mxGeometry>
        </mxCell>
        <mxCell id="R3SNG4ff3FNcJSPOFOAm-66" value="" style="endArrow=none;html=1;rounded=0;" edge="1" parent="1">
          <mxGeometry width="50" height="50" relative="1" as="geometry">
            <mxPoint x="900" y="340" as="sourcePoint" />
            <mxPoint x="1000" y="340" as="targetPoint" />
          </mxGeometry>
        </mxCell>
        <mxCell id="R3SNG4ff3FNcJSPOFOAm-68" value="" style="endArrow=classic;html=1;rounded=0;" edge="1" parent="1">
          <mxGeometry width="50" height="50" relative="1" as="geometry">
            <mxPoint x="900" y="340" as="sourcePoint" />
            <mxPoint x="900" y="370" as="targetPoint" />
          </mxGeometry>
        </mxCell>
        <mxCell id="R3SNG4ff3FNcJSPOFOAm-69" value="return 0;" style="ellipse;whiteSpace=wrap;html=1;" vertex="1" parent="1">
          <mxGeometry x="863.12" y="370" width="73.75" height="30" as="geometry" />
        </mxCell>
      </root>
    </mxGraphModel>
  </diagram>
</mxfile>
